<?xml version="1.0" standalone="no"?>
<!DOCTYPE svg PUBLIC "-//W3C//DTD SVG 20010904//EN"
 "http://www.w3.org/TR/2001/REC-SVG-20010904/DTD/svg10.dtd">
<svg version="1.0" xmlns="http://www.w3.org/2000/svg"
 width="1024.000000pt" height="1024.000000pt" viewBox="0 0 1024.000000 1024.000000"
 preserveAspectRatio="xMidYMid meet">
<metadata>
Created by potrace 1.15, written by Peter Selinger 2001-2017
</metadata>
<g transform="translate(0.000000,1024.000000) scale(0.100000,-0.100000)"
fill="#000000" stroke="none">
<path d="M4943 8152 l-312 -547 -76 -290 c-222 -842 -364 -1382 -367 -1398 -2
-15 69 -55 377 -212 l380 -194 64 -103 c34 -57 143 -236 241 -398 429 -711
698 -1151 721 -1179 21 -27 92 -54 639 -247 338 -119 678 -238 755 -266 l140
-49 -40 43 c-22 23 -45 47 -51 53 -6 5 -48 51 -94 100 -137 147 -718 765 -783
831 l-59 62 -62 220 -63 220 71 17 c78 19 230 77 260 100 21 16 23 56 6 115
-15 52 -12 114 11 225 11 55 21 145 22 200 2 88 -2 110 -27 178 -22 61 -26 83
-18 100 9 20 167 235 305 414 78 102 100 165 95 273 l-4 85 -97 182 c-112 212
-177 311 -267 407 -112 118 -229 183 -376 206 -45 7 -77 19 -96 35 -36 30 -61
37 -119 33 -39 -3 -47 1 -73 30 -38 43 -123 92 -237 136 -171 65 -199 83 -226
143 -13 29 -31 57 -40 61 -15 9 -53 136 -204 687 -40 143 -75 263 -78 267 -3
3 -146 -240 -318 -540z m862 -790 c33 -24 84 -58 112 -74 47 -27 52 -32 42
-50 -30 -55 1 -208 38 -194 9 4 29 -4 47 -17 48 -37 97 -60 140 -66 l39 -6
-54 -37 c-30 -20 -74 -57 -98 -82 l-44 -45 -61 92 c-34 51 -78 121 -98 157
-45 81 -83 118 -139 134 l-44 13 -52 184 c-29 101 -52 186 -53 188 0 1 37 -32
83 -75 45 -42 109 -97 142 -122z m-27 -367 c14 -11 30 -44 47 -103 43 -145 67
-204 98 -239 38 -43 72 -43 178 -2 44 17 82 29 83 27 7 -7 38 -151 56 -261 22
-130 26 -292 9 -330 -6 -13 -23 -31 -39 -40 -35 -21 -182 -59 -191 -49 -3 4
-13 34 -21 67 -15 58 -163 589 -231 828 -34 119 -33 132 11 102z m694 -481
c41 -21 136 -111 154 -146 23 -45 17 -103 -22 -196 -107 -256 -144 -367 -144
-436 0 -20 16 -109 35 -199 79 -370 77 -401 -35 -542 -53 -66 -117 -131 -124
-124 -5 5 -296 1043 -293 1046 8 7 193 -40 238 -61 31 -15 64 -24 73 -20 23 9
36 67 36 169 0 50 7 153 15 230 9 77 18 175 22 218 3 42 8 77 10 77 2 0 18 -7
35 -16z"/>
<path d="M3707 5450 c-164 -65 -300 -120 -302 -122 -3 -2 13 -379 64 -1547 6
-129 13 -236 15 -238 2 -2 108 3 235 13 l231 16 398 -390 c218 -214 406 -399
416 -411 26 -28 13 -23 -513 233 -223 108 -414 196 -425 196 -12 0 -104 -16
-206 -35 -143 -26 -188 -39 -200 -53 -14 -18 -79 -105 -420 -567 -134 -181
-309 -416 -548 -738 -106 -142 -192 -260 -192 -262 0 -3 1287 -5 2861 -5 1656
0 2859 4 2857 9 -3 9 -186 290 -384 591 l-112 169 45 118 c72 190 213 574 213
578 0 3 -5 5 -10 5 -6 0 -117 38 -248 84 -130 47 -320 114 -422 149 -873 307
-1158 410 -1177 425 -12 9 -150 193 -306 407 -307 423 -688 946 -775 1064
l-55 74 -364 178 c-201 99 -368 179 -371 178 -4 -1 -141 -54 -305 -119z"/>
</g>
</svg>
